<svg width="722" height="400" viewBox="0 0 722 400" fill="none" xmlns="http://www.w3.org/2000/svg">
<g clip-path="url(#clip0_1_3)">
<rect width="722" height="400" fill="#7B0F1A"/>
<path d="M660.468 -10.3072C664.428 48.3891 683.591 64.1265 744.936 64.6555" stroke="#E6D5C3"/>
<path d="M681.468 -25.3072C685.428 33.3891 704.591 49.1265 765.936 49.6555" stroke="#E6D5C3"/>
<path d="M743.5 -30.5313C752.502 -23.7293 751.973 -7.85616 742.317 4.92246C732.662 17.7011 717.537 22.5462 708.535 15.7442C699.532 8.94229 700.062 -6.93089 709.717 -19.7095C719.373 -32.4881 734.498 -37.3332 743.5 -30.5313Z" fill="#D9D9D9"/>
<path d="M66.8817 415.034C74.8574 356.747 59.2681 337.464 -0.70695 324.557" stroke="#E6D5C3"/>
<path d="M43.2851 425.484C51.2608 367.197 35.6715 347.914 -24.3036 335.007" stroke="#E6D5C3"/>
<path d="M-18.5233 418.073C-25.9663 409.593 -22.2419 394.154 -10.2048 383.588C1.83237 373.023 17.6241 371.332 25.0671 379.812C32.5101 388.292 28.7857 403.731 16.7486 414.296C4.71143 424.862 -11.0803 426.553 -18.5233 418.073Z" fill="#D9D9D9"/>
<path d="M660.468 -10.3072C664.428 48.3891 683.591 64.1265 744.936 64.6555" stroke="#E6D5C3"/>
<path d="M681.468 -25.3072C685.428 33.3891 704.591 49.1265 765.936 49.6555" stroke="#E6D5C3"/>
<path d="M743.5 -30.5313C752.502 -23.7293 751.973 -7.85616 742.317 4.92246C732.662 17.7011 717.537 22.5462 708.535 15.7442C699.532 8.94229 700.062 -6.93089 709.717 -19.7095C719.373 -32.4881 734.498 -37.3332 743.5 -30.5313Z" fill="#D9D9D9"/>
<path d="M722 266C720.22 307.814 707.857 321.161 663 323.135C696.893 340.67 712.274 354.668 722 400" stroke="#E6D5C3"/>
<path d="M-4.05338e-06 137C1.88819 95.1904 7.81214 71.934 52.6738 70.0763C18.8262 52.4531 9.95642 48.357 0.347744 3.00001" stroke="#E6D5C3"/>
</g>
<defs>
<clipPath id="clip0_1_3">
<rect width="722" height="400" fill="white"/>
</clipPath>
</defs>
</svg>
